<?xml version="1.0" standalone="no"?>
<!DOCTYPE svg PUBLIC "-//W3C//DTD SVG 20010904//EN"
 "http://www.w3.org/TR/2001/REC-SVG-20010904/DTD/svg10.dtd">
<svg version="1.0" xmlns="http://www.w3.org/2000/svg"
 width="100.000000pt" height="100.000000pt" viewBox="0 0 100.000000 100.000000"
 preserveAspectRatio="xMidYMid meet">
<metadata>
Created by potrace 1.14, written by Peter Selinger 2001-2017
</metadata>
<g transform="translate(0.000000,100.000000) scale(0.100000,-0.100000)"
fill="#000000" stroke="none">
<path d="M530 830 c0 -12 -12 -44 -26 -72 -25 -49 -26 -60 -26 -195 0 -129 -2
-144 -17 -141 -14 3 -16 21 -16 136 0 128 -1 133 -20 128 -11 -3 -27 -6 -37
-6 -14 0 -16 -16 -15 -146 2 -127 4 -147 20 -155 21 -12 22 -26 2 -45 -17 -18
-20 -34 -4 -34 5 0 17 -16 25 -35 20 -49 51 -47 93 5 27 34 30 43 21 61 -9 15
-8 24 1 36 10 11 13 74 14 249 0 129 -3 234 -7 234 -4 0 -8 -9 -8 -20z"/>
<path d="M295 660 c-16 -11 -35 -18 -42 -16 -6 3 -25 -10 -40 -28 -16 -18 -34
-31 -40 -29 -7 3 -20 -8 -30 -24 -9 -15 -23 -31 -29 -36 -7 -4 -15 -21 -19
-37 -4 -17 -11 -27 -17 -24 -9 6 -8 -6 8 -81 4 -16 17 -42 30 -56 14 -14 21
-28 18 -32 -4 -3 6 -11 22 -18 16 -6 38 -16 49 -21 12 -5 41 -11 65 -13 25 -3
67 -7 94 -11 l50 -6 -15 23 c-9 13 -45 40 -79 59 -74 40 -103 81 -102 142 1
44 39 131 75 170 57 62 58 75 2 38z"/>
<path d="M543 274 l-38 -39 224 -3 c123 -1 226 0 229 3 3 3 -2 13 -11 22 -12
12 -36 18 -84 19 -38 1 -95 7 -128 14 -33 7 -81 14 -107 17 -45 5 -50 3 -85
-33z"/>
</g>
</svg>
